<?xml version="1.0" standalone="no"?><!DOCTYPE svg PUBLIC "-//W3C//DTD SVG 1.1//EN" "http://www.w3.org/Graphics/SVG/1.1/DTD/svg11.dtd"><svg t="1711469924523" class="icon" viewBox="0 0 1024 1024" version="1.1" xmlns="http://www.w3.org/2000/svg" p-id="15218" data-spm-anchor-id="a313x.search_index.0.i9.79ba3a814e6TUk" xmlns:xlink="http://www.w3.org/1999/xlink" width="200" height="200"><path d="M512 0c282.775704 0 512 229.224296 512 512S794.775704 1024 512 1024 0 794.775704 0 512 229.224296 0 512 0z m265.860741 411.154963L518.352593 548.219259a13.672296 13.672296 0 0 1-12.743112 0l-259.223703-136.912592-0.246519 254.331259c0 28.311704 23.931259 51.484444 53.172148 51.484444h425.33926c29.240889 0 53.172148-23.172741 53.172148-51.484444V411.154963z m-53.191111-105.927111h-425.33926c-29.089185 0-52.641185 22.907259-52.906666 51.01037l265.709037 143.625482 265.709037-143.758223c-0.341333-28.046222-24.139852-50.87763-53.172148-50.877629z" fill="#e6e6e6" p-id="15219" data-spm-anchor-id="a313x.search_index.0.i7.79ba3a814e6TUk" class="selected"></path></svg>