<?xml version="1.0" standalone="no"?><!DOCTYPE svg PUBLIC "-//W3C//DTD SVG 1.1//EN" "http://www.w3.org/Graphics/SVG/1.1/DTD/svg11.dtd"><svg t="1711512918990" class="icon" viewBox="0 0 1024 1024" version="1.1" xmlns="http://www.w3.org/2000/svg" p-id="976" data-spm-anchor-id="a313x.collections_detail.0.i2.557c3a81QPJcMe" xmlns:xlink="http://www.w3.org/1999/xlink" width="200" height="200"><path d="M690.8928 423.9872a725.8624 725.8624 0 0 1 82.5344 69.9904 15.36 15.36 0 1 0 21.6576-21.76A756.4288 756.4288 0 0 0 709.1712 399.36c-40.96-30.1568-166.8608-139.1616-76.8-276.1728a15.36 15.36 0 1 0-25.6-16.8448c-83.4048 126.6688-11.2128 246.9376 84.1216 317.6448z" fill="#3C3C44" p-id="977"></path><path d="M859.8016 546.5088a15.36 15.36 0 0 0-24.1664 18.9952c14.7968 18.8416 66.2016 111.9744 27.136 190.5152-24.7296 49.664-81.92 84.3264-168.6016 103.1168a179.968 179.968 0 0 0 70.4-74.3424c41.4208-84.0192 6.8608-190.8736-45.7728-259.4816a15.36 15.36 0 1 0-24.3712 18.7392c46.848 61.0304 78.1824 154.9824 42.5984 227.1232-24.1664 48.9472-76.8 81.3056-153.6 95.5904a139.8784 139.8784 0 0 0 16.64-22.3232c59.3408-98.2528 26.6752-289.5872-10.9056-361.0624a15.36 15.36 0 0 0-27.1872 14.2848c33.8432 64.3072 64.768 243.2512 11.8272 330.8544-17.2544 28.5696-41.3184 43.776-73.3184 46.3872h-15.0528a71.68 71.68 0 0 1-56.32-28.0576c-64.3072-82.2272-9.5744-306.432-9.0112-308.6848a15.36 15.36 0 0 0-29.7984-7.3728c-2.4576 9.7792-58.88 240.9984 14.592 334.9504 0.768 1.024 1.5872 1.9456 2.4064 2.9184-55.6544-10.24-95.2832-33.1264-118.1184-68.5056-55.9104-86.7328 4.4032-222.9248 5.12-224.8704a15.36 15.36 0 1 0-28.0576-12.4928c-2.816 6.1952-68.3008 153.0368-3.1744 254.1056a159.1296 159.1296 0 0 0 27.0848 31.8464c-72.9088-22.3744-118.1696-58.368-133.12-107.1104-32.7168-105.6768 76.8-241.6128 165.0176-304.384 73.5744-52.5312 113.8176-130.3552 116.0704-225.024a375.6544 375.6544 0 0 0-18.9952-127.488 15.36 15.36 0 0 0-28.8256 10.5984c3.0208 8.2944 72.448 203.8784-86.3744 316.8768-95.744 68.1472-213.8112 218.2144-176.5888 338.5344 26.8288 86.6304 123.1872 137.472 286.72 151.5008a112.64 112.64 0 0 0-38.5536 56.32 15.36 15.36 0 1 0 29.696 7.7824c0-0.5632 14.08-50.5856 73.984-59.0848a164.1472 164.1472 0 0 0 11.52 76.3904 15.36 15.36 0 0 0 13.9776 8.9088 15.0528 15.0528 0 0 0 6.4-1.3824 15.36 15.36 0 0 0 7.5264-20.48 133.8368 133.8368 0 0 1-8.448-64.2048c64.3072 6.2976 81.92 58.1632 82.6368 60.416a15.36 15.36 0 0 0 14.6432 10.8032 14.4384 14.4384 0 0 0 4.608-0.7168 15.36 15.36 0 0 0 10.24-19.2 118.5792 118.5792 0 0 0-38.0928-53.4016c163.4304-9.5232 266.24-54.6816 306.0736-134.7072 46.6944-93.8496-12.1856-199.8848-30.464-223.1808z" fill="#3C3C44" p-id="978"></path><path d="M496.64 336.7424a9.3696 9.3696 0 0 0 1.6896 0 15.36 15.36 0 0 0 13.6704-17.0496c-17.2032-156.7232 40.2432-265.3696 40.96-266.5984a15.36 15.36 0 1 0-26.9824-14.6944c-2.56 4.7104-62.8224 117.76-44.4416 284.672A15.36 15.36 0 0 0 496.64 336.7424z" fill="#3C3C44" p-id="979"></path></svg>